<?xml version="1.0" encoding="utf-8"?>
<!-- Generator: Adobe Illustrator 23.1.1, SVG Export Plug-In . SVG Version: 6.00 Build 0)  -->
<svg version="1.1" id="Capa_1" xmlns="http://www.w3.org/2000/svg" xmlns:xlink="http://www.w3.org/1999/xlink" x="0px" y="0px"
	 viewBox="0 0 224.9 167" style="enable-background:new 0 0 224.9 167;" xml:space="preserve">
<style type="text/css">
	.st0{clip-path:url(#SVGID_2_);fill:#FFFFFF;}
	.st1{clip-path:url(#SVGID_2_);fill:#00206F;}
	.st2{clip-path:url(#SVGID_2_);fill:#DCA593;}
</style>
<g>
	<defs>
		<rect id="SVGID_1_" x="-11.1" y="-6.4" width="250.9" height="180.4"/>
	</defs>
	<clipPath id="SVGID_2_">
		<use xlink:href="#SVGID_1_"  style="overflow:visible;"/>
	</clipPath>
	<path class="st0" d="M216.2,35.5c-0.2-0.9-0.9-2.6-2.9-3.8c-0.1,0-0.1-0.1-0.2-0.1c-0.3-0.2-0.6-0.5-1.1-0.7
		c-0.5-0.8-1.3-1.7-2.4-2.4c-0.7-4-3-5.2-4.9-5.5c-0.3,0-0.5-0.1-0.8-0.1c-2.3,0-4,1.2-5.3,3.6c-0.1,0.1-0.1,0.2-0.2,0.4
		c-0.1,0.1-0.2,0.2-0.2,0.3c-0.3,0.4-0.8,0.9-1.1,1.6c0,0,0,0-0.1,0.1c0,0-2.1,2-3.3,4l-0.3,0.4c-0.2,0.4-0.7,1.1-1,1.7
		c-0.6,0.2-1.2,0.4-1.6,0.5c-0.5,0.2-1,0.3-1.2,0.4l-0.2,0.1c-0.4,0.1-0.4,0.2-0.7,0.2c-0.5,0.1-1.9,0.1-2.8,0.2
		c-1.4,0.1-2.6,0.1-3.4,0.2c-0.2,0-0.6,0-1,0c-0.9,0-1.7,0-2.5,0.1c0,0-0.1-0.1-0.1-0.1c-1-0.8-2.3-1.2-3.7-1.2
		c-1.9,0-3.6,0.8-4.8,2.3c-1.2,1.5-1.5,3.5-1,5.4c0,0.1,0,0.2,0.1,0.3c-0.2,0.3-0.3,0.6-0.5,0.9c0-0.1-0.1-0.2-0.1-0.3l-10.7-30.5
		c-0.8-2.4-3-3.9-5.5-3.9h-14.2c-2.5,0-4.7,1.6-5.5,3.9l-1.7,4.8c-1.9-2.8-4.3-5-7.2-6.6c-3.3-1.9-7.1-2.8-11.3-2.8
		c-0.2,0-0.5,0-0.7,0c-0.4,0-0.7,0-1.1,0c-3.1,0-6,0.5-8.7,1.6C99.5,11.4,97,13,94.9,15c-0.9,0.8-1.6,1.8-2.3,2.7L91,13.4
		c-0.8-2.4-3-3.9-5.5-3.9H71.3c-2.5,0-4.7,1.6-5.5,3.9l-6.1,17h-1.9v-15c0-3.2-2.6-5.9-5.9-5.9h-13c-0.3,0-0.7,0-1,0.1
		c-0.3-0.1-0.6-0.1-1-0.1H14.6c-3.2,0-5.9,2.6-5.9,5.9v30.9c0,3.2,2.6,5.9,5.9,5.9h13c2.9,0,5.2-2.1,5.8-4.8
		c0.5,2.7,2.9,4.8,5.8,4.8h30.4c0,0-0.1,0.1-0.1,0.1c-2.1,2.1-3.7,4.5-4.8,7.2C63.5,62,63,64.9,63,68c0,4.2,1,7.9,2.9,11.2
		c1.9,3.3,4.7,6,8.3,8.1c0,0,0.1,0,0.1,0.1c1.6,0.9,3.3,1.5,5.2,2c2.1,0.5,4.4,0.7,6.7,0.7c0.3,0,0.6,0,0.9,0c1.6,0,3.2-0.2,4.8-0.5
		c0.5-0.1,1-0.2,1.4-0.3c0,0,0.1,0,0.1,0h13.8c1.6,0,3.2-0.7,4.2-1.8c1.1,1.1,2.6,1.8,4.2,1.8h26.2c1.4,0,2.7-0.5,3.7-1.3
		c1,0.8,2.3,1.3,3.7,1.3h5.9c-2.6,4.3-5.7,8.2-9.4,11.6c-10.2,9.5-23.5,14.8-37.6,14.8c-15.7,0-30.9-6.6-41.8-18.2
		c-8.7-9.3-14-20.7-15.3-33.2c-0.3-2.8-2.7-4.9-5.5-4.9H13.1c-1.5,0-3,0.6-4,1.7c-1,1.1-1.6,2.6-1.5,4.1c1.6,23,11.2,45,27.1,61.9
		c19,20.3,45.8,31.9,73.4,31.9c25.1,0,49-9.4,67.2-26.5c18.7-17.5,29.7-41.4,30.8-67.1c0.1-1.5-0.5-2.9-1.5-4
		c-0.2-0.2-0.4-0.4-0.6-0.6c0,0,0-0.1,0-0.1c0-0.2,0-0.5,0-0.8c0-0.5,0-1,0-1.6c0-0.4,0.1-0.9,0.2-1.6c0-0.3,0.1-0.6,0.1-1
		c0.1-0.6,0.2-1.2,0.3-1.7c0.5-0.6,1.3-1.6,1.6-3l0.1-0.2c0.2-0.8,0.6-2.4,0.6-4.2c0-0.5,0-0.9-0.1-1.4c0-0.2,0-0.4,0-0.6
		c0.1-0.2,0.1-0.4,0.2-0.6c0.8,0.1,1.9,0.1,2.9-0.2c1.4-0.4,2.3-1,3-1.5c0.7-0.5,1.5-1.2,2.1-2.1C216.5,38.4,216.4,36.6,216.2,35.5"
		/>
	<path class="st1" d="M210.5,36.5c-0.4-0.2-1.1-0.8-1.6-1c-0.5-0.2-1.1-0.5-1.3-0.8c-0.2-0.3-0.2-0.6-0.4-0.9
		c-0.1-0.2-0.7-0.7-1.1-0.9c-0.4-0.2-1-0.9-1.2-1c-0.2-0.1-0.5-0.3-0.6-0.5c0-0.2-0.2-1.2-0.3-1.7c-0.1-0.5-0.2-1.3-0.3-1.3
		c-0.1,0-0.6,1.1-1,1.7c-0.5,0.6-1,1.1-1.1,1.5c-0.1,0.3-0.6,0.8-1,1.2c-0.4,0.4-1.7,1.8-2.4,2.9c-0.7,1.1-2.1,3.5-2.6,3.9
		c-0.6,0.3-3.5,1.2-4.3,1.5c-0.8,0.3-1,0.4-1.8,0.5c-0.8,0.2-5.2,0.3-6.6,0.4c-1.4,0.2-2.5-0.1-3.9,0.1c-1.4,0.3-1.7,0.5-2,0.5
		c-0.3-0.1-1.3-1.5-1.5-1.6c-0.2-0.2-1.1-0.3-0.9,0.7c0.3,1,1,1.9,0.5,2.6c-0.4,0.7-1.8,3.1-1.9,3.7c-0.1,0.5,0,2.4-0.3,3.1
		c-0.3,0.8-1.1,2.8-1.7,3.9c-0.6,1.1-1,1.8-1.5,2.1c-0.5,0.3-0.5,0.5-0.6,0.6c0,0.1,0,0.4-0.1,0.4c-0.1,0.1-0.8,0.7-1,0.9
		c-0.2,0.3-0.1,0.6-0.2,0.7c-0.1,0.1-0.2,0.4-0.1,0.8c0.1,0.4,0,1,0,1.6c0,0.6-0.3,2.5-0.3,2.7c0,0.3-0.1,0.7-0.2,1
		c-0.1,0.3,0,0.6,0.1,0.9c0.1,0.2,0.2,0.3,0.2,0.4c0,0.1,0.1,0.4,0.4,0.5c-1.5,13.8-7.8,27.1-18.6,37.2c-24.6,23-63.6,21.4-87.1-3.7
		c-9.8-10.4-15.4-23.3-16.8-36.4H13.1c1.5,21,10,41.8,25.7,58.5c35.8,38.1,95.3,40.4,132.9,5.1c18.3-17.1,28-40,29.1-63.3l-0.3,0
		c0-0.1-0.1-0.1-0.1-0.2c-0.2-0.2-0.1-0.4-0.6-0.4c-0.5,0-0.5,0-0.8-0.4c-0.2-0.4-0.6-1.6-0.6-2c0-0.4,0.2-1.1,0.2-1.6
		c0-0.5,0.1-1.5,0.1-2.4c0-0.9,0.2-1.8,0.3-3.1s0.5-3.3,0.9-3.9c0.4-0.5,1-1,1.1-1.5c0.2-0.6,0.5-1.7,0.5-2.9c0-1.2-0.2-2.3-0.1-2.9
		c0.1-0.6,0.7-2.2,1.1-3.2c0.3-1,0.9-2.8,1.1-2.9c0.2-0.1,0.7,0.1,1,0.2c0.4,0.1,0.6,0.1,1.1,0.2c0.5,0.2,1.1,0.2,1.5,0.3
		c0.4,0.1,0.9,0.2,1.5,0.1c0.6-0.2,0.8-0.4,1.1-0.6c0.3-0.2,0.7-0.6,0.9-0.8C210.9,36.8,211,36.7,210.5,36.5 M169.1,64.2
		c0-0.2,0.1-0.5,0.1-0.5c0,0,0,0.8,0.2,1.1c0,0,0,0,0.1,0.1l-0.4,0C169.1,64.5,169.1,64.3,169.1,64.2 M171.6,64.8
		c0.2-0.3,0.1-1.1-0.2-1.2c-0.4-0.2-0.7-0.2-0.8-0.3c-0.1-0.1-0.2-0.9-0.2-1.4c0-0.4,0-0.8,0.2-1.1c0.2-0.3,0.2-0.6,0.2-0.7
		c0-0.1,0-0.3,0.1-0.5c0.1-0.2,0.5-0.7,1.2-1.3c0.7-0.6,1.4-1.2,2-1.8c0.7-0.5,2.2-1.6,2.8-2.4c0.6-0.8,1.4-2.3,2.4-3.1
		c1.1-0.7,2.1-1.2,2.8-1.1c0.7,0,3.7,0.8,6.2,1.5c2.5,0.7,4.5,1.6,5.4,1.7c0.8,0.1,1.1,0,1.2,0c0.1,0-0.1,0.4,0.1,0.7
		c0.2,0.2,0.7,1.7,0.6,3c0,1.3,0.1,2.5,0.1,3.2c0,0.7,0,1.6,0,2.2c0,0.6-0.2,1.2,0,1.4c0.2,0.2,0.4-0.1,0.6,0
		c0.1,0.1,0.3,0.7,0.5,1.3L171.6,64.8z"/>
	<path class="st2" d="M110,121.1v32.3c-20.4,0.4-40.9-5.8-58.1-18.4l21-24.8C84,117.8,97.1,121.4,110,121.1"/>
	<path class="st0" d="M78.3,128.6c0,0,2.5-2.3,1.2-4.2c0,0-0.4-0.7,0.4-0.6c0,0,3.7-0.8,4.4,0c0,0,8.5-4.1,12.1-2.6
		c0,0,0.3,0.8,0,1.1c0,0,0.3,0.2,0.1,0.8c0,0-1.2,3.7-4.2,5.5c0,0,0.2,3.9-1.4,4.4c0,0-0.5-2.7-1.2-2.5l-5.4,2.5c0,0-0.7,3.5-2,3.9
		c-1.3,0.5-0.4,0-0.4,0s-0.7-2.3,0-2.6l0.2-0.7c0,0-3.7,1.3-4,3.4c0,0-0.3,3.8,3.9,3.9c0,0,5.7-1.6,6.7-1c0,0-4.9,3.2-3.3,9.1
		c0,0-3.1-1.6-4.1-4.6c0,0-3.3-2.1-3.9-3l-0.8,0.8c0,0-0.7-1.5-0.5-2.3C76.2,140.1,73.3,133.7,78.3,128.6"/>
	<polygon class="st1" points="14.1,46.2 14.1,15.3 34.8,15.3 34.8,23.7 25.2,23.7 25.2,27.3 33.9,27.3 33.9,35.2 25.2,35.2 
		25.2,46.2 	"/>
	<polygon class="st1" points="38.6,46.2 38.6,15.3 49.7,15.3 49.7,36.2 60.5,36.2 60.5,46.2 	"/>
	<path class="st1" d="M59.8,46.2l11-30.9h12.4L94,46.2H82l-1-3.9h-8.4l-0.9,3.9H59.8z M74.5,35h4.6l-0.9-3.5c-0.5-1.8-0.8-3.1-1-4.1
		c-0.2-1-0.3-1.9-0.3-2.7h-0.2c0,0.8-0.1,1.7-0.3,2.7c-0.2,1-0.5,2.3-0.9,4.1L74.5,35z"/>
	<path class="st1" d="M114.6,35.1h-4.8v-7.3h17.1c0,0.6,0.1,1.1,0.1,1.4c0,0.3,0,0.6,0,0.8c0,1.8-0.2,3.4-0.5,4.9
		c-0.3,1.5-0.8,2.8-1.5,3.9c-1.6,2.6-3.6,4.7-6.1,6.1c-2.5,1.4-5.3,2.1-8.5,2.1c-2.3,0-4.5-0.4-6.5-1.2c-2-0.8-3.8-1.9-5.3-3.4
		c-1.5-1.5-2.7-3.3-3.5-5.2c-0.8-2-1.2-4.1-1.2-6.4c0-2.3,0.4-4.4,1.2-6.4c0.8-2,2-3.7,3.5-5.2c1.5-1.5,3.3-2.7,5.3-3.4
		c2-0.8,4.2-1.2,6.5-1.2c3.2,0,6,0.7,8.4,2.1c2.5,1.4,4.5,3.4,6,6.1l-9.9,3.7c-0.5-0.9-1.1-1.5-1.9-1.9c-0.7-0.4-1.6-0.6-2.5-0.6
		c-1.6,0-3,0.6-3.9,1.9c-1,1.3-1.5,2.9-1.5,5c0,2.2,0.5,3.9,1.5,5.1c1,1.2,2.4,1.8,4.2,1.8c1.1,0,1.9-0.2,2.6-0.7
		C114.1,36.6,114.5,35.9,114.6,35.1"/>
	<path class="st1" d="M126.9,46.2l11-30.9h12.4l10.8,30.9h-11.9l-1-3.9h-8.4l-1,3.9H126.9z M141.6,35h4.6l-1-3.5
		c-0.5-1.8-0.8-3.1-0.9-4.1c-0.2-1-0.3-1.9-0.3-2.7h-0.2c0,0.8-0.1,1.7-0.3,2.7c-0.2,1-0.5,2.3-0.9,4.1L141.6,35z"/>
	<path class="st1" d="M92.1,64.7c-1-1-2-1.7-3.1-2.2c-1.1-0.5-2.2-0.7-3.3-0.7c-1.8,0-3.3,0.6-4.4,1.7c-1.1,1.1-1.7,2.6-1.7,4.5
		c0,1.8,0.5,3.3,1.6,4.3c1.1,1.1,2.5,1.6,4.2,1.6c1.1,0,2.2-0.2,3.3-0.7c1.1-0.5,2.3-1.2,3.6-2.2L92,82.7c-1.2,0.5-2.4,0.9-3.6,1.1
		c-1.2,0.2-2.4,0.4-3.6,0.4c-1.5,0-3-0.2-4.3-0.5c-1.4-0.3-2.7-0.8-3.8-1.4c-2.7-1.6-4.8-3.6-6.2-6c-1.4-2.4-2.1-5.2-2.1-8.3
		c0-2.3,0.4-4.4,1.2-6.4c0.8-2,2-3.7,3.5-5.2c1.5-1.5,3.3-2.7,5.3-3.4c2-0.8,4.2-1.2,6.6-1.2c1.3,0,2.5,0.1,3.7,0.4
		c1.2,0.3,2.4,0.7,3.6,1.2V64.7z"/>
	<path class="st1" d="M93,83.4l11-30.9h12.4l10.8,30.9h-11.9l-1-3.9h-8.4l-0.9,3.9H93z M107.7,72.1h4.6l-1-3.5
		c-0.5-1.8-0.8-3.1-1-4.1c-0.2-1-0.3-1.9-0.3-2.7h-0.2c0,0.8-0.1,1.7-0.3,2.7c-0.2,1-0.5,2.3-0.9,4.1L107.7,72.1z"/>
	<path class="st1" d="M128.9,83.4V52.5h10.9l9.6,16.2c-0.1-0.7-0.2-1.5-0.3-2.4c0-0.9-0.1-2-0.1-3.4V52.5h10.7v30.9h-11l-9.5-16
		c0.1,0.7,0.2,1.4,0.3,2.2c0.1,0.8,0.1,1.7,0.1,2.7v11.1H128.9z"/>
	<path class="st0" d="M28.6,80c-0.5,0.1-1,0.1-1.5,0c-0.5-0.2-0.9-0.5-1.3-0.9c-0.4-0.4-0.6-1-0.8-1.7c-0.2-0.8-0.2-1.6,0-2.2
		c0.1-0.4,0.4-0.8,0.7-1.2c0.3-0.3,0.7-0.6,1-0.6c0.2-0.1,0.4,0,0.6,0.1c0.2,0.1,0.3,0.3,0.4,0.5c0,0.2,0,0.3-0.1,0.5
		c-0.1,0.2-0.2,0.3-0.4,0.5c-0.2,0.2-0.4,0.4-0.6,0.5c-0.2,0.2-0.3,0.4-0.3,0.6c-0.1,0.3,0,0.6,0,0.9c0.1,0.5,0.4,0.9,0.7,1.1
		c0.3,0.3,0.7,0.3,1,0.2c0.3-0.1,0.5-0.2,0.6-0.4c0.1-0.2,0.2-0.5,0.2-0.8c0-0.3,0-0.7,0-1.2c0-0.6,0-1.2,0.1-1.7
		c0.1-0.5,0.3-0.8,0.5-1.2c0.3-0.3,0.7-0.6,1.2-0.7c0.5-0.1,0.9-0.1,1.4,0.1c0.4,0.2,0.8,0.4,1.1,0.9c0.3,0.4,0.6,1,0.7,1.6
		c0.1,0.5,0.2,1,0.2,1.4c0,0.4-0.1,0.8-0.3,1.1c-0.2,0.3-0.3,0.5-0.5,0.7c-0.2,0.2-0.4,0.3-0.7,0.4c-0.2,0.1-0.4,0-0.6-0.1
		c-0.2-0.1-0.3-0.3-0.4-0.5c0-0.2,0-0.4,0-0.5c0.1-0.1,0.2-0.3,0.4-0.5c0.3-0.2,0.5-0.5,0.6-0.7c0.1-0.3,0.1-0.6,0-1.1
		c-0.1-0.4-0.3-0.8-0.6-1c-0.3-0.2-0.5-0.3-0.8-0.2c-0.2,0-0.3,0.1-0.4,0.3c-0.1,0.1-0.2,0.3-0.2,0.5c0,0.2-0.1,0.4-0.1,0.5
		c0,0.2,0,0.5,0,0.9c0,0.5,0,1,0,1.4c0,0.4-0.1,0.8-0.2,1.1c-0.1,0.3-0.3,0.6-0.6,0.8C29.3,79.7,29,79.9,28.6,80"/>
	<path class="st0" d="M29.4,87.5l0.9-0.8l-1.2-3.3l-1.2,0c-0.5,0-0.8,0-1-0.1c-0.2-0.1-0.3-0.2-0.4-0.4c-0.1-0.2-0.1-0.4,0-0.6
		c0.1-0.2,0.2-0.4,0.4-0.4c0.1,0,0.2-0.1,0.4-0.1c0.1,0,0.3,0,0.6,0l6.2,0.1c0.2,0,0.4,0,0.6,0c0.2,0,0.5,0,0.6,0.1
		c0.2,0,0.3,0.1,0.5,0.2c0.1,0.1,0.3,0.3,0.3,0.5c0.1,0.2,0.1,0.4,0.1,0.6c0,0.2-0.1,0.4-0.2,0.5c-0.1,0.1-0.2,0.3-0.4,0.4
		c-0.1,0.1-0.3,0.3-0.6,0.5l-4.6,4.1c-0.3,0.3-0.6,0.5-0.8,0.6c-0.2,0.1-0.4,0.1-0.6,0c-0.2-0.1-0.4-0.3-0.5-0.5
		c0-0.1-0.1-0.2-0.1-0.4c0-0.1,0-0.2,0.1-0.3c0.1-0.1,0.2-0.2,0.3-0.3C29.2,87.7,29.3,87.6,29.4,87.5 M30.6,83.4l0.9,2.4l3-2.5
		L30.6,83.4z"/>
	<path class="st0" d="M37.9,89.4L32,92.2l1.6,3.2c0.1,0.3,0.2,0.5,0.1,0.7c-0.1,0.2-0.2,0.3-0.4,0.4c-0.2,0.1-0.4,0.1-0.6,0
		c-0.2-0.1-0.3-0.2-0.5-0.5l-1.8-3.8c-0.2-0.3-0.2-0.6-0.1-0.9c0.1-0.2,0.3-0.4,0.7-0.6l6.2-3c0.3-0.2,0.6-0.2,0.8-0.1
		c0.2,0.1,0.4,0.2,0.5,0.5c0.1,0.2,0.1,0.5,0,0.7C38.4,89,38.2,89.2,37.9,89.4"/>
	<path class="st0" d="M36.1,100.1l4.1-4.2L35,99.2c-0.3,0.2-0.5,0.2-0.8,0.2c-0.2,0-0.4-0.2-0.5-0.4c-0.1-0.2-0.2-0.4-0.1-0.6
		c0.1-0.2,0.2-0.4,0.5-0.6l6-3.7c0.3-0.2,0.6-0.3,0.8-0.2c0.2,0.1,0.4,0.3,0.6,0.6l0.3,0.5c0.2,0.3,0.3,0.5,0.3,0.7
		c0,0.2,0,0.3-0.1,0.5c-0.1,0.1-0.3,0.3-0.5,0.6l-3.5,3.6l4.8-1.5c0.4-0.1,0.6-0.2,0.8-0.2c0.2,0,0.3,0,0.5,0.1
		c0.1,0.1,0.3,0.3,0.5,0.6l0.3,0.5c0.2,0.3,0.3,0.5,0.2,0.8c0,0.2-0.2,0.5-0.5,0.7l-6,3.7c-0.3,0.2-0.5,0.2-0.8,0.2
		c-0.2,0-0.4-0.2-0.5-0.4c-0.1-0.2-0.2-0.4-0.1-0.6c0.1-0.2,0.2-0.4,0.5-0.6l5.2-3.2l-5.6,1.8c-0.4,0.1-0.6,0.2-0.8,0.2
		c-0.2,0-0.4,0-0.6,0c-0.2-0.1-0.4-0.2-0.5-0.4c-0.1-0.2-0.2-0.3-0.2-0.5c0-0.2,0-0.3,0.1-0.5c0.1-0.1,0.2-0.3,0.3-0.4
		C35.8,100.4,36,100.3,36.1,100.1"/>
	<path class="st0" d="M48.7,104.8c0.6,0.7,0.9,1.4,1,2.2c0.1,0.7,0,1.5-0.3,2.1c-0.3,0.7-0.9,1.3-1.6,1.9c-0.5,0.4-1.1,0.7-1.6,1
		c-0.6,0.2-1.1,0.3-1.7,0.3c-0.5,0-1.1-0.2-1.6-0.5c-0.5-0.3-1-0.7-1.4-1.2c-0.4-0.5-0.7-1.1-0.9-1.6c-0.2-0.6-0.2-1.1-0.1-1.6
		c0.1-0.5,0.3-1.1,0.7-1.6c0.3-0.5,0.8-1,1.3-1.4c0.5-0.4,1.1-0.7,1.7-0.9c0.6-0.2,1.1-0.3,1.7-0.3c0.5,0,1.1,0.2,1.5,0.5
		C47.8,103.9,48.3,104.3,48.7,104.8 M46.7,109.6c0.5-0.4,0.9-0.8,1.1-1.3c0.2-0.5,0.3-0.9,0.3-1.4c0-0.5-0.2-0.9-0.5-1.3
		c-0.2-0.3-0.5-0.5-0.8-0.6c-0.3-0.1-0.6-0.2-0.9-0.2c-0.3,0-0.7,0.1-1.1,0.2c-0.4,0.2-0.8,0.4-1.2,0.7c-0.4,0.3-0.7,0.6-1,1
		c-0.2,0.4-0.4,0.7-0.5,1c-0.1,0.3-0.1,0.7,0,1c0.1,0.3,0.2,0.6,0.4,0.9c0.3,0.4,0.6,0.6,1,0.8c0.4,0.2,0.9,0.2,1.4,0
		C45.6,110.3,46.1,110,46.7,109.6 M50.8,104l0.5,0.6c0.1,0.2,0.2,0.3,0.1,0.3c0,0-0.2,0-0.5,0c-0.3,0-0.6-0.1-0.9-0.1
		c-0.3,0-0.5-0.1-0.6-0.1c-0.2-0.1-0.4-0.3-0.6-0.5c-0.1-0.1-0.1-0.2,0-0.3c0.1,0,0.2-0.1,0.4-0.1l0.6-0.1c0.3-0.1,0.6-0.1,0.7,0
		C50.5,103.7,50.7,103.8,50.8,104"/>
	<path class="st0" d="M53,111.4l-1.3,6.1l3.8-3.7c0.2-0.2,0.5-0.4,0.7-0.4c0.2,0,0.4,0.1,0.6,0.2c0.2,0.2,0.3,0.4,0.2,0.6
		c0,0.2-0.2,0.5-0.4,0.7l-5,4.9c-0.6,0.6-1.1,0.6-1.5,0.2c-0.1-0.1-0.2-0.2-0.3-0.4s-0.1-0.3-0.1-0.4c0-0.2,0-0.3,0-0.5
		c0-0.2,0.1-0.3,0.1-0.5l1.4-6l-3.7,3.7c-0.2,0.2-0.5,0.4-0.7,0.4c-0.2,0-0.4-0.1-0.6-0.2c-0.2-0.2-0.3-0.4-0.2-0.6
		c0-0.2,0.2-0.5,0.4-0.7l4.9-4.8c0.2-0.2,0.4-0.3,0.6-0.4c0.2-0.1,0.4-0.1,0.6,0c0.2,0,0.4,0.1,0.5,0.3c0.1,0.1,0.2,0.2,0.2,0.3
		c0,0.1,0.1,0.2,0.1,0.4c0,0.1,0,0.3-0.1,0.4C53.1,111,53,111.2,53,111.4"/>
	<path class="st0" d="M163.4,118.3l-1.3-0.7l-3.4,2.8l0.5,1.4c0.2,0.6,0.3,0.9,0.3,1.2c0,0.2-0.1,0.5-0.4,0.7
		c-0.2,0.2-0.5,0.3-0.8,0.2c-0.3,0-0.5-0.1-0.7-0.3c-0.1-0.1-0.2-0.3-0.2-0.4c-0.1-0.2-0.1-0.4-0.2-0.7l-2.4-7.3
		c-0.1-0.2-0.2-0.5-0.3-0.8c-0.1-0.3-0.2-0.6-0.2-0.8c0-0.2,0-0.5,0.1-0.7c0.1-0.2,0.2-0.4,0.5-0.6c0.2-0.2,0.5-0.3,0.7-0.4
		c0.2,0,0.5,0,0.7,0c0.2,0.1,0.4,0.1,0.6,0.3c0.2,0.1,0.5,0.3,0.8,0.4l6.7,3.7c0.5,0.3,0.8,0.5,1,0.7c0.2,0.2,0.2,0.4,0.2,0.7
		c0,0.3-0.2,0.5-0.4,0.7c-0.1,0.1-0.3,0.2-0.4,0.2c-0.1,0-0.3,0-0.4,0c-0.1,0-0.3-0.1-0.5-0.2C163.7,118.5,163.5,118.4,163.4,118.3
		 M158.1,118.7l2.5-2.1l-4.1-2.5L158.1,118.7z"/>
	<path class="st0" d="M170.5,111.5l-0.1-0.1c0,0.4,0.1,0.8,0,1.1c0,0.3-0.1,0.6-0.2,0.9c-0.1,0.3-0.3,0.6-0.6,0.8
		c-0.3,0.4-0.7,0.6-1.1,0.8c-0.4,0.2-0.9,0.2-1.4,0.2c-0.5,0-1-0.2-1.5-0.4c-0.5-0.2-1-0.6-1.4-1c-0.9-0.9-1.5-1.8-1.6-2.7
		c-0.1-0.9,0.2-1.8,0.9-2.5c0.4-0.4,0.8-0.7,1.2-0.9c0.4-0.2,0.9-0.2,1.5-0.2l-2.2-2.1c-0.3-0.3-0.5-0.6-0.5-0.8
		c0-0.3,0-0.5,0.2-0.7c0.2-0.2,0.4-0.3,0.7-0.3c0.3,0,0.5,0.2,0.8,0.4l6.6,6.1c0.3,0.3,0.4,0.5,0.5,0.8c0,0.3-0.1,0.5-0.3,0.7
		c-0.2,0.2-0.4,0.3-0.7,0.3C171,111.9,170.8,111.7,170.5,111.5 M165.6,112.3c0.4,0.4,0.8,0.6,1.2,0.8c0.4,0.1,0.8,0.2,1.1,0.1
		c0.3-0.1,0.6-0.3,0.9-0.5c0.2-0.3,0.4-0.6,0.5-0.9c0.1-0.3,0-0.7-0.2-1.1c-0.2-0.4-0.5-0.8-0.9-1.2c-0.4-0.4-0.8-0.6-1.2-0.8
		c-0.4-0.1-0.8-0.2-1.1-0.1c-0.4,0.1-0.7,0.2-0.9,0.5c-0.3,0.3-0.4,0.6-0.4,0.9c0,0.4,0,0.7,0.2,1.1
		C164.9,111.6,165.2,112,165.6,112.3"/>
	<path class="st0" d="M176.6,103.8l-0.2-0.2c0.1,0.4,0.2,0.7,0.2,1.1c0,0.3,0,0.7-0.1,1c-0.1,0.3-0.3,0.6-0.5,1
		c-0.3,0.4-0.6,0.7-1,0.9c-0.4,0.2-0.8,0.3-1.2,0.2c-0.5-0.1-1.1-0.3-1.7-0.8l-3.3-2.4c-0.3-0.2-0.5-0.5-0.6-0.8
		c-0.1-0.3,0-0.5,0.2-0.8c0.2-0.2,0.4-0.4,0.7-0.4c0.3,0,0.6,0.1,0.9,0.3l2.6,1.9c0.4,0.3,0.7,0.5,1,0.6c0.3,0.1,0.6,0.2,0.9,0.1
		c0.3-0.1,0.5-0.2,0.7-0.5c0.2-0.3,0.3-0.6,0.3-1c0-0.4-0.1-0.7-0.3-1c-0.2-0.3-0.6-0.7-1.4-1.3l-2-1.5c-0.3-0.2-0.5-0.5-0.6-0.8
		c-0.1-0.3,0-0.5,0.2-0.8c0.2-0.2,0.4-0.4,0.7-0.4c0.3,0,0.6,0.1,0.9,0.3l4.8,3.5c0.3,0.2,0.5,0.5,0.6,0.7c0.1,0.3,0,0.5-0.2,0.7
		c-0.2,0.2-0.4,0.3-0.7,0.4C177.2,104.1,176.9,104,176.6,103.8"/>
	<path class="st0" d="M178.9,100.1l-7.6-4.7c-0.4-0.2-0.6-0.5-0.6-0.7c-0.1-0.3,0-0.5,0.1-0.8c0.2-0.3,0.4-0.4,0.7-0.5
		c0.3-0.1,0.6,0,0.9,0.3l7.6,4.7c0.4,0.2,0.6,0.5,0.6,0.7c0.1,0.3,0,0.5-0.1,0.8c-0.2,0.3-0.4,0.4-0.7,0.4
		C179.6,100.4,179.3,100.3,178.9,100.1"/>
	<path class="st0" d="M175.2,93l0.1-0.2l-1.1-0.6c-0.3-0.2-0.5-0.3-0.7-0.4c-0.2-0.1-0.3-0.2-0.4-0.4c-0.1-0.1-0.1-0.3-0.1-0.5
		c0-0.2,0-0.3,0.1-0.5c0.1-0.2,0.3-0.4,0.6-0.5c0.2-0.1,0.4-0.1,0.5,0c0.2,0.1,0.4,0.2,0.7,0.3l1.2,0.7l0.4-0.6
		c0.1-0.3,0.3-0.4,0.5-0.5c0.2-0.1,0.4,0,0.6,0.1c0.2,0.1,0.4,0.3,0.4,0.6c0,0.2-0.1,0.5-0.3,0.9l-0.2,0.3l3.3,1.8
		c0.3,0.2,0.5,0.3,0.7,0.3c0.2,0.1,0.3,0.1,0.5,0c0.1,0,0.3-0.1,0.4-0.3c0.1-0.1,0.1-0.3,0.2-0.5c0.1-0.2,0.1-0.3,0.2-0.4
		c0.1-0.1,0.2-0.2,0.4-0.3c0.2-0.1,0.4,0,0.5,0.1c0.3,0.2,0.4,0.4,0.4,0.8c0,0.4-0.2,0.9-0.5,1.5c-0.3,0.6-0.6,0.9-1,1.1
		c-0.3,0.2-0.7,0.2-1.1,0.1c-0.4-0.1-0.9-0.3-1.4-0.6l-3.5-1.9l-0.1,0.2c-0.1,0.3-0.3,0.4-0.5,0.5c-0.2,0.1-0.4,0-0.6-0.1
		c-0.2-0.1-0.3-0.3-0.4-0.5C175,93.5,175,93.2,175.2,93"/>
	<path class="st0" d="M184.3,83.1c0.6,0.2,1,0.6,1.4,0.9c0.4,0.4,0.7,0.8,0.9,1.3s0.3,1,0.3,1.5s-0.1,1.1-0.4,1.6
		c-0.2,0.6-0.6,1-0.9,1.4c-0.4,0.4-0.8,0.6-1.3,0.8c-0.5,0.2-1,0.3-1.5,0.2c-0.5,0-1.1-0.2-1.7-0.4c-0.6-0.2-1.1-0.6-1.5-0.9
		c-0.4-0.4-0.7-0.8-0.9-1.3c-0.2-0.5-0.3-1-0.3-1.5c0-0.5,0.1-1.1,0.4-1.6c0.2-0.6,0.6-1,0.9-1.4c0.4-0.4,0.8-0.7,1.3-0.8
		c0.5-0.2,1-0.3,1.5-0.2C183.2,82.7,183.7,82.9,184.3,83.1 M183.5,85c-0.8-0.3-1.4-0.4-2-0.3c-0.6,0.1-1,0.5-1.2,1.1
		c-0.2,0.4-0.2,0.7-0.1,1.1c0.1,0.4,0.3,0.7,0.6,1c0.3,0.3,0.7,0.6,1.2,0.8c0.5,0.2,1,0.3,1.4,0.3c0.4,0,0.8-0.1,1.1-0.3
		c0.3-0.2,0.5-0.5,0.7-0.8c0.2-0.6,0.2-1.1-0.1-1.6C184.8,85.7,184.2,85.3,183.5,85"/>
</g>
</svg>
